<svg width="1000" height="1000" viewBox="0 0 1000 1000" fill="none" xmlns="http://www.w3.org/2000/svg">
<g clip-path="url(#clip0_160_415)">
<rect width="1000" height="1000" fill="white"/>
<path d="M437.547 621.828C437.547 612.974 436.245 605.031 433.641 598C431.036 590.708 426.219 583.938 419.188 577.688C412.156 571.438 402 565.188 388.719 558.938C375.698 552.427 358.51 545.656 337.156 538.625C312.156 530.292 288.068 520.917 264.891 510.5C241.714 499.823 221.01 487.453 202.781 473.391C184.552 459.068 170.099 442.401 159.422 423.391C148.745 404.12 143.406 381.724 143.406 356.203C143.406 331.724 148.875 309.719 159.812 290.188C170.75 270.396 185.984 253.599 205.516 239.797C225.307 225.734 248.484 215.057 275.047 207.766C301.609 200.214 330.646 196.438 362.156 196.438C403.823 196.438 440.542 203.729 472.312 218.312C504.344 232.635 529.344 253.078 547.312 279.641C565.542 305.943 574.656 337.062 574.656 373H438.328C438.328 358.677 435.333 346.047 429.344 335.109C423.615 324.172 414.891 315.578 403.172 309.328C391.453 303.078 376.74 299.953 359.031 299.953C341.844 299.953 327.391 302.557 315.672 307.766C303.953 312.974 295.099 320.005 289.109 328.859C283.12 337.453 280.125 346.958 280.125 357.375C280.125 365.969 282.469 373.781 287.156 380.812C292.104 387.583 299.005 393.964 307.859 399.953C316.974 405.943 327.911 411.672 340.672 417.141C353.693 422.609 368.276 427.948 384.422 433.156C414.63 442.792 441.453 453.599 464.891 465.578C488.589 477.297 508.51 490.708 524.656 505.812C541.062 520.656 553.432 537.583 561.766 556.594C570.359 575.604 574.656 597.089 574.656 621.047C574.656 646.568 569.708 669.224 559.812 689.016C549.917 708.807 535.724 725.604 517.234 739.406C498.745 752.948 476.609 763.234 450.828 770.266C425.047 777.297 396.271 780.812 364.5 780.812C335.333 780.812 306.557 777.167 278.172 769.875C250.047 762.323 224.526 750.865 201.609 735.5C178.693 719.875 160.333 699.953 146.531 675.734C132.99 651.255 126.219 622.219 126.219 588.625H263.719C263.719 605.292 265.932 619.354 270.359 630.812C274.786 642.271 281.297 651.516 289.891 658.547C298.484 665.318 309.031 670.266 321.531 673.391C334.031 676.255 348.354 677.688 364.5 677.688C381.948 677.688 396.01 675.214 406.688 670.266C417.365 665.057 425.177 658.286 430.125 649.953C435.073 641.359 437.547 631.984 437.547 621.828ZM734.328 621.828C734.328 612.974 733.026 605.031 730.422 598C727.818 590.708 723 583.938 715.969 577.688C708.938 571.438 698.781 565.188 685.5 558.938C672.479 552.427 655.292 545.656 633.938 538.625C608.938 530.292 584.849 520.917 561.672 510.5C538.495 499.823 517.792 487.453 499.562 473.391C481.333 459.068 466.88 442.401 456.203 423.391C445.526 404.12 440.188 381.724 440.188 356.203C440.188 331.724 445.656 309.719 456.594 290.188C467.531 270.396 482.766 253.599 502.297 239.797C522.089 225.734 545.266 215.057 571.828 207.766C598.391 200.214 627.427 196.438 658.938 196.438C700.604 196.438 737.323 203.729 769.094 218.312C801.125 232.635 826.125 253.078 844.094 279.641C862.323 305.943 871.438 337.062 871.438 373H735.109C735.109 358.677 732.115 346.047 726.125 335.109C720.396 324.172 711.672 315.578 699.953 309.328C688.234 303.078 673.521 299.953 655.812 299.953C638.625 299.953 624.172 302.557 612.453 307.766C600.734 312.974 591.88 320.005 585.891 328.859C579.901 337.453 576.906 346.958 576.906 357.375C576.906 365.969 579.25 373.781 583.938 380.812C588.885 387.583 595.786 393.964 604.641 399.953C613.755 405.943 624.693 411.672 637.453 417.141C650.474 422.609 665.057 427.948 681.203 433.156C711.411 442.792 738.234 453.599 761.672 465.578C785.37 477.297 805.292 490.708 821.438 505.812C837.844 520.656 850.214 537.583 858.547 556.594C867.141 575.604 871.438 597.089 871.438 621.047C871.438 646.568 866.49 669.224 856.594 689.016C846.698 708.807 832.505 725.604 814.016 739.406C795.526 752.948 773.391 763.234 747.609 770.266C721.828 777.297 693.052 780.812 661.281 780.812C632.115 780.812 603.339 777.167 574.953 769.875C546.828 762.323 521.307 750.865 498.391 735.5C475.474 719.875 457.115 699.953 443.312 675.734C429.771 651.255 423 622.219 423 588.625H560.5C560.5 605.292 562.714 619.354 567.141 630.812C571.568 642.271 578.078 651.516 586.672 658.547C595.266 665.318 605.812 670.266 618.312 673.391C630.812 676.255 645.135 677.688 661.281 677.688C678.729 677.688 692.792 675.214 703.469 670.266C714.146 665.057 721.958 658.286 726.906 649.953C731.854 641.359 734.328 631.984 734.328 621.828Z" fill="#861010"/>
</g>
<defs>
<clipPath id="clip0_160_415">
<rect width="1000" height="1000" fill="white"/>
</clipPath>
</defs>
</svg>
